<?xml version="1.0" encoding="UTF-8"?>
<svg id="Layer_1" xmlns="http://www.w3.org/2000/svg" version="1.1" viewBox="0 0 800 800">
  <!-- Generator: Adobe Illustrator 30.1.0, SVG Export Plug-In . SVG Version: 2.1.1 Build 136)  -->
  <defs>
    <style>
      .st0 {
        fill: #fff;
      }
    </style>
  </defs>
  <path class="st0" d="M187.5,500c0-13.81-11.19-25-25-25s-25,11.19-25,25h50ZM162.5,533.33h-25,25ZM642.5,500c0-13.81-11.19-25-25-25s-25,11.19-25,25h50ZM370.29,517.96c-8.49,10.89-6.55,26.6,4.34,35.09,10.89,8.49,26.6,6.55,35.09-4.34l-39.43-30.75ZM539.71,382.04c8.49-10.89,6.55-26.6-4.34-35.09-10.89-8.49-26.6-6.55-35.09,4.34l39.43,30.75ZM370.29,548.71c8.49,10.89,24.2,12.83,35.09,4.34,10.89-8.49,12.83-24.2,4.34-35.09l-39.43,30.75ZM279.71,351.29c-8.49-10.89-24.2-12.83-35.09-4.34-10.89,8.49-12.83,24.2-4.34,35.09l39.43-30.75ZM365,533.33c0,13.81,11.19,25,25,25s25-11.19,25-25h-50ZM415,166.67c0-13.81-11.19-25-25-25s-25,11.19-25,25h50ZM137.5,500v33.33h50v-33.33h-50ZM137.5,533.33c0,68.44,54.25,125,122.5,125v-50c-39.45,0-72.5-32.98-72.5-75h-50ZM260,658.33h260v-50h-260v50ZM520,658.33c68.25,0,122.5-56.56,122.5-125h-50c0,42.02-33.05,75-72.5,75v50ZM642.5,533.33v-33.33h-50v33.33h50ZM409.71,548.71l130-166.67-39.43-30.75-130,166.67,39.43,30.75ZM409.71,517.96l-130-166.67-39.43,30.75,130,166.67,39.43-30.75ZM415,533.33V166.67h-50v366.67h50Z"/>
</svg>